<svg width="26" height="26" viewBox="0 0 26 26" fill="none" xmlns="http://www.w3.org/2000/svg">
<path d="M23.993 1.94987C22.7445 0.701388 21.0512 0 19.2855 0C17.5199 0 15.8265 0.701388 14.578 1.94987L1.89052 14.6361C0.668125 15.89 -0.0110447 17.5749 0.000135886 19.326C0.0113165 21.0771 0.711948 22.7532 1.95025 23.9914C3.18855 25.2295 4.8648 25.9299 6.61588 25.9409C8.36695 25.9518 10.0518 25.2724 11.3055 24.0499L23.9943 11.3636C25.2407 10.1142 25.9405 8.42132 25.9403 6.65649C25.9401 4.89165 25.2398 3.19899 23.993 1.94987ZM9.89177 22.6361C9.01837 23.5097 7.83374 24.0005 6.59846 24.0006C5.36318 24.0007 4.17845 23.5101 3.30489 22.6367C2.43133 21.7634 1.94051 20.5787 1.94039 19.3434C1.94027 18.1082 2.43087 16.9234 3.30427 16.0499L8.94052 10.4136L15.528 16.9999L9.89177 22.6361ZM22.5793 9.94987L16.9405 15.5861L10.3555 8.99987L15.993 3.36362C16.8699 2.50703 18.0491 2.03065 19.2749 2.03781C20.5007 2.04497 21.6742 2.5351 22.541 3.40188C23.4078 4.26867 23.8979 5.44222 23.9051 6.66802C23.9122 7.89382 23.4359 9.07302 22.5793 9.94987ZM20.6505 7.29237C20.7435 7.38525 20.8173 7.49553 20.8676 7.61693C20.9179 7.73833 20.9438 7.86846 20.9438 7.99987C20.9438 8.13129 20.9179 8.26142 20.8676 8.38281C20.8173 8.50421 20.7435 8.6145 20.6505 8.70737L17.6505 11.7074C17.5576 11.8002 17.4473 11.8738 17.326 11.924C17.2046 11.9742 17.0745 12 16.9432 12C16.8119 11.9999 16.6818 11.974 16.5605 11.9237C16.4392 11.8734 16.329 11.7997 16.2361 11.7067C16.1433 11.6138 16.0697 11.5036 16.0195 11.3822C15.9693 11.2608 15.9435 11.1308 15.9435 10.9994C15.9436 10.8681 15.9695 10.7381 16.0198 10.6167C16.0701 10.4954 16.1439 10.3852 16.2368 10.2924L19.2368 7.29237C19.4243 7.10498 19.6785 6.99971 19.9436 6.99971C20.2087 6.99971 20.463 7.10498 20.6505 7.29237Z" fill="white"/>
</svg>
